<svg width="512" height="512" viewBox="0 0 1.707 1.707" xml:space="preserve" xmlns="http://www.w3.org/2000/svg"><defs><mask maskUnits="userSpaceOnUse" id="a"><g style="display:inline"><path style="display:inline;fill:#8c6238;fill-opacity:1;stroke-width:.00109977" d="M.604 1.276c.16 0 .16 0 .16.08l.001.085a.045.045 0 0 0 .026.03c.004.002.006.002.025.003a1.577 1.577 0 0 0 .106 0c.019 0 .02-.001.025-.004a.045.045 0 0 0 .025-.029.442.442 0 0 0 .003-.085c0-.08 0-.08.16-.08-.17 0-.29-.08-.531 0z" transform="translate(0 -.015)"/><path style="display:inline;fill:#009345;fill-opacity:1;stroke-width:.00109977" d="M.853.262H.85a.036.036 0 0 0-.023.01.305.305 0 0 0-.016.023C.804.305.79.323.78.34L.78.34.773.352a54.927 54.927 0 0 0-.085.126L.687.479.683.485C.631.563.633.559.633.568a.023.023 0 0 0 .004.017.027.027 0 0 0 .011.01h.055l.02.001A.982.982 0 0 0 .675.67 81.858 81.858 0 0 0 .55.857C.545.865.545.867.545.87c0 .003 0 .006.002.009.002.007.005.01.01.014A.029.029 0 0 0 .56.894l.003.001c.005.002.01.002.04.002H.64L.632.91l-.03.045L.597.96a4.75 4.75 0 0 1-.061.09 39.818 39.818 0 0 0-.08.12l-.003.005a46.972 46.972 0 0 1-.042.062v.003a.024.024 0 0 0-.002.007v.003c0 .005.001.01.004.015a.018.018 0 0 0 .007.007l.003.001.002.001c.008.002.032.002.162.002 0 .002.53 0 .53 0 .13 0 .155 0 .163-.002h.002l.002-.002a.018.018 0 0 0 .008-.007.028.028 0 0 0 .005-.015v-.003a.022.022 0 0 0-.003-.009.69.69 0 0 0-.037-.056l-.001-.001-.002-.003A56.431 56.431 0 0 1 1.11.96L1.105.955a10.49 10.49 0 0 0-.038-.057l.036-.001c.03 0 .036 0 .04-.002l.003-.001A.028.028 0 0 0 1.15.892a.025.025 0 0 0 .01-.014.02.02 0 0 0 .001-.009c0-.002 0-.004-.004-.012A300.055 300.055 0 0 1 .983.596h.021c.04 0 .052 0 .054-.002a.027.027 0 0 0 .012-.01.023.023 0 0 0 .004-.016c0-.009.002-.005-.05-.083a10.514 10.514 0 0 1-.09-.133L.93.346.896.296A.305.305 0 0 0 .88.272a.036.036 0 0 0-.024-.01H.853z" transform="translate(0 -.015)"/></g></mask></defs><path style="display:inline;fill:#0177bd;stroke:none;stroke-width:.0010602;image-rendering:optimizeQuality" d="M.385.22C.358.222.33.224.308.24.263.27.25.323.24.37L.22.459c-.05.235-.105.47-.16.703-.017.071-.035.143-.05.215-.005.026-.013.066.006.088.021.025.066.023.095.023l.238.002h.66c.076 0 .153 0 .23-.002.04 0 .08.003.12-.004a.125.125 0 0 0 .059-.024.146.146 0 0 0 .041-.07c.015-.044.023-.091.033-.137l.16-.723c.015-.068.031-.136.045-.205C1.702.3 1.709.262 1.69.241 1.668.217 1.625.22 1.597.22h-.9C.625.22.554.22.482.218"/><path style="display:inline;fill:#fff;fill-opacity:1;stroke:none;stroke-width:.0010602;image-rendering:optimizeQuality" d="M.678 1.334c.026-.004.054 0 .08 0h.236c.015 0 .031-.002.046.002.058.017.057.118 0 .136-.027.008-.062.002-.09.002H.701c-.013 0-.026.002-.039-.004-.058-.025-.049-.128.016-.136z"/><g style="display:inline"><path style="display:inline;fill:#8c6238;fill-opacity:1;stroke-width:.00109977" d="M.588 1.276c.16 0 .16 0 .16.08 0 .074 0 .079.002.085a.045.045 0 0 0 .025.03c.005.002.007.002.025.003a1.577 1.577 0 0 0 .106 0c.02 0 .02-.001.026-.004a.045.045 0 0 0 .025-.029.442.442 0 0 0 .002-.085c0-.08 0-.08.16-.08-.169 0-.29-.08-.531 0z" transform="translate(0 -.014)"/><path style="display:inline;fill:#009345;fill-opacity:1;stroke-width:.00109977" d="M.853.262H.85a.036.036 0 0 0-.023.01.305.305 0 0 0-.016.023C.804.305.79.323.78.34L.78.34.773.352a54.927 54.927 0 0 0-.085.126L.687.479.683.485C.631.563.633.559.633.568a.023.023 0 0 0 .004.017.027.027 0 0 0 .011.01h.055l.02.001A.982.982 0 0 0 .675.67 81.858 81.858 0 0 0 .55.857C.545.865.545.867.545.87c0 .003 0 .006.002.009.002.007.005.01.01.014A.029.029 0 0 0 .56.894l.003.001c.005.002.01.002.04.002H.64L.632.91l-.03.045L.597.96a4.75 4.75 0 0 1-.061.09 39.818 39.818 0 0 0-.08.12l-.003.005a46.972 46.972 0 0 1-.042.062v.003a.024.024 0 0 0-.002.007v.003c0 .005.001.01.004.015a.018.018 0 0 0 .007.007l.003.001.002.001c.008.002.032.002.162.002 0 .002.53 0 .53 0 .13 0 .155 0 .163-.002h.002l.002-.002a.018.018 0 0 0 .008-.007.028.028 0 0 0 .005-.015v-.003a.022.022 0 0 0-.003-.009.69.69 0 0 0-.037-.056l-.001-.001-.002-.003A56.431 56.431 0 0 1 1.11.96L1.105.955a10.49 10.49 0 0 0-.038-.057l.036-.001c.03 0 .036 0 .04-.002l.003-.001A.028.028 0 0 0 1.15.892a.025.025 0 0 0 .01-.014.02.02 0 0 0 .001-.009c0-.002 0-.004-.004-.012A300.055 300.055 0 0 1 .983.596h.021c.04 0 .052 0 .054-.002a.027.027 0 0 0 .012-.01.023.023 0 0 0 .004-.016c0-.009.002-.005-.05-.083a10.514 10.514 0 0 1-.09-.133L.93.346.896.296A.305.305 0 0 0 .88.272a.036.036 0 0 0-.024-.01H.853z" transform="translate(0 -.014)"/></g><path style="display:inline;opacity:.783394;mix-blend-mode:overlay;fill:#fff;fill-opacity:1;stroke:none;stroke-width:.0010602;image-rendering:optimizeQuality" d="M.644.36C.694.354.732.414.76.446c.083.095.168.189.254.281l.049.053c.018.02.04.043.036.072-.002.022-.021.04-.038.052C1.03.93.994.954.961.978l-.381.28c-.03.023-.06.046-.09.067-.018.013-.041.027-.064.024-.04-.004-.08-.053-.063-.094.01-.025.038-.041.059-.057.117-.085.235-.171.351-.258L.86.875.88.859C.883.857.888.855.89.852c0-.006-.016-.02-.02-.024L.81.76A16.8 16.8 0 0 0 .647.578C.619.548.585.518.565.483.53.426.585.366.644.36" mask="url(#a)"/></svg>