<svg xmlns="http://www.w3.org/2000/svg" xml:space="preserve" width="512" height="512" viewBox="0 0 1.707 1.707"><defs><mask id="a" maskUnits="userSpaceOnUse"><g stroke-width=".001"><path fill="#8c6238" d="M.604 1.261c.16 0 .16 0 .16.08l.001.085a.045.045 0 0 0 .026.03c.004.002.006.002.025.003a1.577 1.577 0 0 0 .106 0c.019 0 .02-.001.025-.004a.045.045 0 0 0 .025-.029.442.442 0 0 0 .003-.085c0-.08 0-.08.16-.08-.17 0-.29-.08-.531 0z"/><path fill="#009345" d="M.853.248H.85a.036.036 0 0 0-.023.01.305.305 0 0 0-.016.022C.804.29.79.308.78.325L.78.327l-.007.01a54.927 54.927 0 0 0-.085.126L.687.464.683.47C.631.548.633.544.633.553A.023.023 0 0 0 .636.57a.027.027 0 0 0 .011.01h.055l.02.001a.982.982 0 0 0-.048.073A81.858 81.858 0 0 0 .55.842C.545.85.545.852.545.854c0 .003 0 .006.002.01.002.006.005.01.01.013A.029.029 0 0 0 .56.879L.563.88c.005.002.01.002.04.002H.64L.632.896.602.94.597.945a4.75 4.75 0 0 1-.061.091 39.818 39.818 0 0 0-.08.12l-.003.004a46.972 46.972 0 0 1-.042.063v.002a.024.024 0 0 0-.002.007v.003c0 .005.001.01.004.015a.018.018 0 0 0 .007.007l.003.001.002.001c.008.002.032.002.162.002 0 .002.53 0 .53 0 .13 0 .155 0 .163-.002h.002l.002-.002a.018.018 0 0 0 .008-.007.028.028 0 0 0 .005-.015v-.003a.022.022 0 0 0-.003-.009.69.69 0 0 0-.037-.056l-.001-.001-.002-.003A56.431 56.431 0 0 1 1.11.945L1.105.94a10.49 10.49 0 0 0-.038-.057l.036-.001c.03 0 .036 0 .04-.002h.003A.028.028 0 0 0 1.15.876a.025.025 0 0 0 .01-.014.02.02 0 0 0 .001-.009c0-.002 0-.004-.004-.012A300.055 300.055 0 0 1 .983.581h.021c.04 0 .052 0 .054-.002A.027.027 0 0 0 1.07.57a.023.023 0 0 0 .004-.016c0-.009.002-.005-.05-.083a10.514 10.514 0 0 1-.09-.133L.93.331.896.281A.305.305 0 0 0 .88.257a.036.036 0 0 0-.024-.01H.853z"/></g></mask></defs><path fill="#0177bd" d="M1.648.212c.04 0 .066.033.056.074l-.26 1.135a.097.097 0 0 1-.09.073H.06c-.04 0-.066-.033-.057-.073L.262.286c.01-.04.05-.074.09-.074z" image-rendering="optimizeQuality"/><path fill="#fff" d="M.678 1.33c.026-.004.054 0 .08 0h.236c.015 0 .031-.002.046.002.058.017.057.118 0 .136-.027.008-.062.002-.09.002H.701c-.013 0-.026.002-.039-.004-.058-.024-.049-.128.016-.136z" image-rendering="optimizeQuality"/><path fill="#8c6238" d="M.588 1.261c.16 0 .16 0 .16.08 0 .074 0 .079.002.085a.045.045 0 0 0 .025.03c.005.002.007.002.025.003a1.577 1.577 0 0 0 .106 0c.02 0 .02-.001.026-.004a.045.045 0 0 0 .025-.029.442.442 0 0 0 .002-.085c0-.08 0-.08.16-.08-.169 0-.29-.08-.531 0z"/><path fill="#009345" d="M.853.248H.85a.036.036 0 0 0-.023.01.305.305 0 0 0-.016.022C.804.29.79.308.78.325L.78.327l-.007.01a54.927 54.927 0 0 0-.085.126L.687.464.683.47C.631.548.633.544.633.553A.023.023 0 0 0 .636.57a.027.027 0 0 0 .011.01h.055l.02.001a.982.982 0 0 0-.048.073A81.858 81.858 0 0 0 .55.842C.545.85.545.852.545.854c0 .003 0 .006.002.01.002.006.005.01.01.013A.029.029 0 0 0 .56.879L.563.88c.005.002.01.002.04.002H.64L.632.896.602.94.597.945a4.75 4.75 0 0 1-.061.091 39.818 39.818 0 0 0-.08.12l-.003.004a46.972 46.972 0 0 1-.042.063v.002a.024.024 0 0 0-.002.007v.003c0 .005.001.01.004.015a.018.018 0 0 0 .007.007l.003.001.002.001c.008.002.032.002.162.002 0 .002.53 0 .53 0 .13 0 .155 0 .163-.002h.002l.002-.002a.018.018 0 0 0 .008-.007.028.028 0 0 0 .005-.015v-.003a.022.022 0 0 0-.003-.009.69.69 0 0 0-.037-.056l-.001-.001-.002-.003A56.431 56.431 0 0 1 1.11.945L1.105.94a10.49 10.49 0 0 0-.038-.057l.036-.001c.03 0 .036 0 .04-.002h.003A.028.028 0 0 0 1.15.876a.025.025 0 0 0 .01-.014.02.02 0 0 0 .001-.009c0-.002 0-.004-.004-.012A300.055 300.055 0 0 1 .983.581h.021c.04 0 .052 0 .054-.002A.027.027 0 0 0 1.07.57a.023.023 0 0 0 .004-.016c0-.009.002-.005-.05-.083a10.514 10.514 0 0 1-.09-.133L.93.331.896.281A.305.305 0 0 0 .88.257a.036.036 0 0 0-.024-.01H.853z"/><path fill="#fff" d="M.644.36C.694.354.732.414.76.446c.083.095.168.189.254.281l.049.053c.018.02.04.043.036.072-.002.022-.021.04-.038.052C1.03.93.994.954.961.978l-.381.28c-.03.023-.06.046-.09.067-.018.013-.041.027-.064.024-.04-.004-.08-.053-.063-.094.01-.025.038-.041.059-.057.117-.085.235-.171.351-.258L.86.875.88.859C.883.857.888.855.89.852c0-.006-.016-.02-.02-.024L.81.76A16.8 16.8 0 0 0 .647.578C.619.548.585.518.565.483.53.426.585.366.644.36" image-rendering="optimizeQuality" mask="url(#a)" opacity=".783" style="mix-blend-mode:overlay" transform="translate(0 -.001)"/></svg>